<?xml version="1.0"?>
<svg width="720" height="320" xmlns="http://www.w3.org/2000/svg" xmlns:svg="http://www.w3.org/2000/svg" enable-background="new 0 0 720 320" version="1.1" xml:space="preserve">

 <g class="layer">
  <title>Layer 1</title>
  <path d="m197.24,164.9c7.07,3.51 9.52,10.39 11.5,17.11c1.56,5.3 2.32,11.07 2.13,16.59c-0.29,8.35 1.61,15.84 4.74,23.53c4.72,11.6 6.83,23.65 3.54,36.37c-5.41,20.92 -25.62,26.67 -42.18,16.4c-3.83,-2.38 -6.72,-2.19 -10.87,-1.11c-10.15,2.63 -20.5,5.27 -30.9,6.02c-17.85,1.28 -35.72,0 -54,-4.1c-7.1,-2.18 -13.5,-4.1 -20.18,-6.21c-5.34,-3.32 -10.61,-6.13 -15.34,-9.68c-2.89,-2.16 -3.55,-5.56 -0.57,-8.52c8.31,2.19 16.34,4.14 24.37,6.08c19.3,4.66 38.47,4.81 57.12,-2.72c18.25,-7.38 34.47,-18.01 48.47,-31.92c9.28,-9.21 16.19,-19.97 19.01,-32.76c1.8,-8.19 2.16,-16.71 3.16,-25.08z" fill="#3D7A1A" id="svg_2" opacity="1"/>
  <path d="m197.02,164.59c-0.78,8.68 -1.14,17.2 -2.94,25.39c-2.82,12.79 -9.73,23.55 -19.01,32.76c-14,13.91 -30.22,24.54 -48.47,31.92c-18.65,7.53 -37.82,7.38 -57.12,2.72c-8.03,-1.94 -16.06,-3.89 -24.18,-6.39c5.52,-2.83 11.13,-5.1 17.14,-7.35c7.12,-1.25 13.86,-2.53 20.96,-3.88c0.8,-0.29 1.21,-0.6 1.66,-0.71c16.66,-3.96 31.67,-11.26 45.22,-22.23c1.45,-0.76 2.75,-1.26 3.64,-2.17c9.38,-9.71 18.69,-19.49 28.24,-29.54c0.69,-0.96 1.14,-1.66 1.66,-2.29c4.77,-5.84 9.55,-11.67 14.32,-17.51c5.97,-4.86 12.19,-5.13 18.88,-0.72z" fill="#8BC43C" id="svg_3" opacity="1"/>
  <path d="m62.04,243.62c-5.61,2.27 -11.22,4.54 -17.02,7.11c-2.89,3.53 -2.23,6.93 0.66,9.09c4.73,3.55 10,6.36 14.94,9.78c-4.65,1.69 -9.18,3.09 -13.72,4.49c-8.91,-12.04 -13.6,-25.58 -14.93,-40.46c-2.8,-31.25 9.51,-57.66 25.83,-82.98c15.2,-23.56 30.32,-47.19 44.7,-71.25c6.01,-10.04 10.04,-21.27 15.3,-31.93c0.53,0.53 0.74,1.02 0.95,1.51c0,1.06 0.01,2.11 -0.27,3.8c-0.68,1.87 -1.31,3.09 -1.42,4.35c-2.11,23.98 -8.25,46.89 -18.92,68.43c-9.53,19.22 -19.66,38.16 -29.66,57.14c-6.4,12.14 -10.96,24.68 -9.43,38.68c0.82,7.43 1.98,14.83 2.99,22.24z" fill="#0F4D34" id="svg_4" opacity="1"/>
  <path d="m493.19,244.84c-0.06,-27.3 -0.17,-54.59 -0.15,-81.89c0.01,-5.83 4.34,-10.82 9.96,-10.86c26.78,-0.19 53.55,-0.08 80.31,-0.08c1.23,15.53 -4.44,21.05 -16.35,21.01c-16.12,-0.07 -32.23,-0.02 -48.65,-0.02c0,9.75 0,19.12 0,28.87c15.09,0 30.01,0 45.87,0c-0.33,3.4 -0.62,6.38 -1.57,9.75c-10.11,0.71 -19.58,0.79 -29.01,1.42c-6.54,0.44 -12.41,2.59 -14.88,9.64c-0.27,0.22 -0.53,0.43 -1.19,1.07c-3.71,3.86 -6.79,7.59 -10.41,10.68c-4.4,3.75 -9.26,6.96 -13.93,10.41z" fill="#8BC43C" id="svg_5" opacity="1"/>
  <path d="m379.73,239.79c-0.27,13.6 1.05,27.48 -1.21,40.74c-3.03,17.77 -14.25,27.25 -31.3,30.25c-12.88,2.26 -25.59,0.88 -37.04,-6.65c-4.69,-3.08 -6.94,-7.51 -8.03,-12.59c-1.31,-6.13 2.56,-11.21 9.05,-12.41c2.25,-0.42 4.55,-0.57 6.83,-0.84c5.54,13.37 13.61,17.91 26.51,14.36c11.07,-3.04 11.92,-10.05 12.13,-23.53c-5.43,1.65 -10.78,3.58 -16.28,4.9c-19.52,4.69 -43.2,-7.85 -41.39,-34.22c0.06,-0.99 0.04,-1.99 0.46,-3.36c2.01,0.51 3.53,1.59 5.23,2.23c5.83,2.2 11.72,4.26 17.86,6.56c2.05,2.59 3.35,5.66 5.67,7.22c6.07,4.06 13.03,3.63 19.38,1c3.3,-1.38 5.7,-4.92 8.93,-7.44c8.02,-2.05 15.61,-4.14 23.2,-6.22z" fill="#44841B" id="svg_6" opacity="1"/>
  <path d="m161.94,185.4c-9.33,9.76 -18.64,19.54 -28.02,29.25c-0.89,0.91 -2.19,1.41 -3.64,1.8c-1.1,-2.28 -1.91,-4.24 -2.62,-6.23c-6.59,-18.61 -11.53,-37.59 -11.59,-57.46c-0.05,-17.89 0.5,-35.79 0.84,-54.1c1.08,-7.82 2.11,-15.21 3.13,-22.61c2.32,-9.22 3.83,-18.75 7.19,-27.58c3.84,-10.08 9.34,-19.54 14.51,-29c0.15,1.74 -0.13,3.2 -0.34,4.68c-2.8,19.81 -6.13,39.57 -8.18,59.46c-1.16,11.21 0.01,22.63 -0.27,33.95c-0.4,15.8 2.38,30.89 10.89,44.27c5.29,8.33 12.02,15.75 18.1,23.57z" fill="#4FBE39" id="svg_7" opacity="1"/>
  <path d="m162.16,185.11c-6.3,-7.53 -13.03,-14.95 -18.32,-23.28c-8.51,-13.38 -11.29,-28.47 -10.89,-44.27c0.28,-11.32 -0.89,-22.74 0.27,-33.95c2.05,-19.89 5.38,-39.65 8.18,-59.46c0.21,-1.48 0.49,-2.94 0.65,-4.83c-0.08,-0.42 -0.05,-0.33 0.18,-0.42c0.41,-0.44 0.6,-0.78 0.78,-1.13c0.97,0.62 2.67,1.12 2.79,1.87c2.84,18.01 5.64,36.02 8.18,54.07c3.05,21.64 3.59,43.77 11.14,64.54c3.31,9.13 8.44,17.61 12.88,26.72c-4.63,6.18 -9.41,12.01 -14.18,17.85c-0.52,0.63 -0.97,1.33 -1.66,2.29z" fill="#225617" id="svg_8" opacity="1"/>
  <path d="m402.99,227.96c4.08,-6.08 10.45,-8.36 17.07,-9.9c10.88,-2.51 21.45,-1.32 31.43,4.05c3.42,-13.27 -10.45,-20.34 -20.16,-18.88c-8.79,1.32 -16.4,4.43 -21.69,11.9c-4.66,-1.57 -8.77,-3.41 -9.57,-8.44c-1.03,-6.56 2.44,-11.74 7.7,-14.4c18.28,-9.26 36.84,-10.7 54.97,0.69c7.17,4.51 10.79,11.49 11.17,19.72c0.65,14.08 0.72,28.18 0.61,42.82c-8.62,3.58 -16.74,4.94 -24.51,-0.95c4.88,-10.28 1.39,-16.65 -6.64,-19.06c-5.65,-1.7 -12.15,-0.58 -18.44,-1.01c-6.57,-5.35 -13.89,-7.22 -21.94,-6.54z" fill="#8BC43C" id="svg_9" opacity="1" transform="matrix(1, 0, 0, 1, 0, 0)"/>
  <path d="m322.27,245.03c-5.86,-2.1 -11.75,-4.16 -17.58,-6.36c-1.7,-0.64 -3.22,-1.72 -5.16,-2.7c-0.15,-9.79 -2.01,-19.6 1.43,-29.09c4.23,-11.67 12.87,-18.12 24.65,-20.89c12.74,-2.99 23.46,0.97 32.9,9.74c0.15,-8.18 8.92,-10.71 21.39,-10.53c0,17.89 0,35.79 -0.08,54.14c-7.68,2.53 -15.27,4.62 -23.15,6.27c-0.08,-8.71 0.2,-16.97 0.31,-25.24c0.09,-7.86 -2.65,-12.11 -10.16,-14.19c-4.02,-1.12 -8.53,-1.46 -12.68,-0.98c-7.04,0.81 -11.97,6.08 -12.07,12.4c-0.15,9.14 0.11,18.29 0.2,27.43z" fill="#8BC43C" id="svg_10" opacity="1"/>
  <path d="m120.03,75.58c-1.01,7.87 -2.04,15.26 -3.32,23.39c-1.43,5.4 -2.37,10.15 -3.82,14.74c-5.7,18.09 -11.74,36.07 -17.31,54.21c-7.19,23.42 -12.99,47.14 -12.55,71.92c-6.73,1.27 -13.47,2.55 -20.6,3.8c-1.4,-7.43 -2.56,-14.83 -3.38,-22.26c-1.53,-14 3.03,-26.54 9.43,-38.68c10,-18.98 20.13,-37.92 29.66,-57.14c10.67,-21.54 16.81,-44.45 18.92,-68.43c0.11,-1.26 0.74,-2.48 1.39,-3.96c0.71,7.16 1.14,14.55 1.58,22.41z" fill="#083523" id="svg_11" opacity="1"/>
  <path d="m493.13,245.32c4.73,-3.93 9.59,-7.14 13.99,-10.89c3.62,-3.09 6.7,-6.82 10.29,-10.44c0.28,9.6 0.28,19.38 0.28,29.69c2.67,0.13 4.59,0.3 6.52,0.31c14.98,0.02 29.95,0.01 44.93,0.01c13.59,0 19.1,6.34 17.42,20.69c-1.65,0.1 -3.41,0.29 -5.17,0.3c-25.13,0.02 -50.26,0.02 -75.39,0c-8.5,0 -12.95,-4.37 -12.99,-12.72c-0.02,-5.5 0.03,-10.99 0.12,-16.95z" fill="#44841B" id="svg_12" opacity="1"/>
  <path d="m597.15,217.95c-3.52,-10.66 0.28,-23.56 13.67,-28.77c17.53,-6.83 35.01,-5.98 51.22,4.07c3.2,1.99 6.05,6.49 6.69,10.24c1.58,9.32 -3.34,12.96 -13.16,12.42c-4.76,-4.58 -7.92,-9.37 -12.36,-11.51c-7.21,-3.48 -15.17,-3.15 -22.36,1.2c-4.41,2.67 -4.72,6.92 -0.05,9.39c4.65,2.45 10.03,3.63 15.19,4.96c9.01,2.32 17.98,4.49 25.83,9.95c8.05,5.6 11.2,13.29 10.27,22.88c-12.61,-11.64 -27,-19.31 -42.77,-24.56c-10.68,-3.55 -21.45,-6.86 -32.17,-10.27z" fill="#8BC43C" id="svg_13" opacity="1"/>
  <path d="m597.12,218.31c10.75,3.05 21.52,6.36 32.2,9.91c15.77,5.25 30.16,12.92 42.46,24.81c0.84,10.36 -9.24,18.27 -18.22,20.79c-15.26,4.27 -30.54,4.16 -45.51,-1.88c-8.38,-3.38 -13.53,-12.21 -12,-21.08c0.67,-3.84 5.8,-7.19 12.09,-7.8c0.97,-0.1 1.97,0.08 2.92,0.13c4.43,16.84 23.9,18.71 35.23,12.92c2.02,-1.03 4.4,-3.92 4.32,-5.86c-0.09,-2.23 -2.28,-5.55 -4.34,-6.32c-9.06,-3.4 -18.42,-6.01 -27.65,-8.97c-9.07,-2.91 -18.06,-5.95 -21.5,-16.65z" fill="#44841B" id="svg_14" opacity="1"/>
  <path d="m402.64,228.02c8.4,-0.74 15.72,1.13 22.13,6.81c-6.78,3.26 -9.72,11.77 -6.1,18.43c2.98,5.48 8.38,5.95 13.56,6.69c6.59,0.94 12.18,-2.09 17.75,-4.98c7.8,5.49 15.92,4.13 24.48,1.01c0.03,3.69 0.46,7.77 -0.89,11.13c-1.16,2.89 -3.93,5.88 -6.75,7.19c-3.9,1.81 -8.51,2.08 -13.35,3.13c-0.3,-2.94 -0.52,-5.19 -0.75,-7.5c-4.63,1.88 -9,4.28 -13.68,5.43c-13.43,3.32 -26.09,1.5 -36.41,-8.36c-10.64,-10.17 -10.54,-28 0.01,-38.98z" fill="#44841B" id="svg_15" opacity="1"/>
  <path d="m265.85,216.93c0.05,9.47 0.09,18.94 0.15,28.42c0.07,9.49 5.93,13.75 15.16,11.05c0.32,-0.09 0.62,-0.3 0.93,-0.31c3.44,-0.07 7.32,-5.16 10.23,0.72c2.73,5.55 1.1,12.86 -3.77,15.85c-10.21,6.27 -21.17,5.43 -31.25,0.67c-9.72,-4.59 -13.79,-13.98 -14.21,-24.48c-0.41,-10.29 -0.1,-20.61 0.38,-31.34c7.79,-0.48 15.09,-0.53 22.38,-0.58z" fill="#44841B" id="svg_16" opacity="1"/>
  <path d="m265.91,216.47c-7.35,0.51 -14.65,0.56 -22.38,0.57c-0.47,-17.86 -0.53,-35.69 -0.51,-53.52c0.01,-5.7 2.9,-9.93 8.3,-11.4c4.53,-1.24 9.25,-1.74 14.65,-2.7c0,22.72 0,44.65 -0.06,67.05z" fill="#8BC43C" id="svg_17" opacity="1"/>
  <path d="m519.2,222.78c1.99,-7.15 7.86,-9.3 14.4,-9.74c9.43,-0.63 18.9,-0.71 28.82,-1.05c-0.44,7.12 -4.25,10.92 -11,10.97c-10.58,0.08 -21.16,-0.03 -32.22,-0.18z" fill="#44841B" id="svg_18" opacity="1"/>
  <path d="m47.07,274.38c4.37,-1.69 8.9,-3.09 13.84,-4.59c6.79,1.82 13.19,3.74 19.87,5.89c-2.2,11.17 -13.27,14.43 -23.12,8.73c-4.01,-2.32 -6.98,-6.44 -10.59,-10.03z" fill="#083623" id="svg_19" opacity="1"/>
  <path d="m118.8,48.77c-0.26,-0.28 -0.47,-0.77 -0.74,-1.53c0.22,0.26 0.51,0.79 0.74,1.53z" fill="#083523" id="svg_20" opacity="1"/>
  <path d="m142.76,17.92c0.07,0.2 -0.12,0.54 -0.57,0.99c-0.08,-0.21 0.12,-0.53 0.57,-0.99z" fill="#4FBE39" id="svg_21" opacity="1"/>
 </g>
</svg>