<?xml version="1.0"?>
<svg width="320" height="320" xmlns="http://www.w3.org/2000/svg" xmlns:svg="http://www.w3.org/2000/svg" enable-background="new 0 0 320 320" version="1.1" xml:space="preserve">

 <g class="layer">
  <title>Layer 1</title>
  <path d="m224.28,177.94c7.08,3.52 9.5,10.41 11.47,17.14c1.55,5.31 2.32,11.09 2.12,16.62c-0.3,8.36 1.62,15.86 4.75,23.55c4.67,11.47 6.79,23.4 3.59,35.95c-5.37,21.11 -25.42,26.98 -42.07,16.73c-4.1,-2.52 -7.13,-2.08 -11.36,-1.01c-10.02,2.54 -20.21,5.16 -30.47,5.89c-17.87,1.27 -35.75,0.02 -54.07,-4.09c-7.1,-2.22 -13.48,-4.16 -20.17,-6.29c-5.21,-3.14 -10.35,-5.78 -14.93,-9.18c-2.94,-2.18 -4.09,-5.61 -0.98,-8.88c12.35,2.75 24.31,5.94 36.48,7.61c8.82,1.2 18.11,1.64 26.84,0.22c28.3,-4.58 50.86,-19.97 70.19,-40.34c9.38,-9.88 15.17,-21.9 16.99,-35.54c0.81,-6.09 1.1,-12.25 1.62,-18.38z" fill="#3D7A1A" id="svg_2" opacity="1"/>
  <path d="m224.06,177.63c-0.3,6.44 -0.59,12.6 -1.4,18.69c-1.82,13.64 -7.61,25.66 -16.99,35.54c-19.33,20.37 -41.89,35.76 -70.19,40.34c-8.73,1.42 -18.02,0.98 -26.84,-0.22c-12.17,-1.67 -24.13,-4.86 -36.23,-7.88c5.52,-2.82 11.11,-5.15 17.13,-7.51c7.12,-1.26 13.8,-2.51 20.85,-3.83c0.8,-0.29 1.21,-0.6 1.67,-0.71c16.67,-3.97 31.69,-11.26 45.24,-22.28c2.11,-1.29 4.16,-2.23 5.61,-3.75c8.73,-9.11 17.32,-18.35 26.19,-27.84c5.52,-6.82 10.81,-13.35 16.1,-19.88c5.97,-4.91 12.18,-5.1 18.86,-0.67z" fill="#8AC33C" id="svg_3" opacity="1"/>
  <path d="m89.1,256.61c-5.58,2.34 -11.17,4.67 -17,7.27c-3.05,3.76 -1.9,7.19 1.04,9.37c4.58,3.4 9.72,6.04 14.53,9.3c-4.65,1.71 -9.22,3.13 -13.78,4.54c-8.87,-12.05 -13.59,-25.58 -14.92,-40.47c-2.77,-30.86 9.22,-57.07 25.28,-82.15c15.2,-23.75 30.5,-47.45 44.98,-71.64c6.1,-10.19 10.23,-21.55 15.58,-32.37c0.52,0.52 0.71,1.01 0.89,1.51c0.01,0.74 0.01,1.48 -0.21,2.88c-0.62,1.92 -1.27,3.15 -1.37,4.43c-2.52,32.49 -13.88,62.1 -29.34,90.4c-6.69,12.26 -13.21,24.61 -19.77,36.94c-6.37,11.96 -10.51,24.47 -8.9,38.26c0.84,7.26 1.99,14.49 2.99,21.73z" fill="#0F4D34" id="svg_4" opacity="1"/>
  <path d="m188.86,198.47c-8.63,9.2 -17.22,18.44 -25.95,27.55c-1.45,1.52 -3.5,2.46 -5.62,3.38c-1.11,-2.25 -1.94,-4.21 -2.64,-6.2c-6.57,-18.61 -11.53,-37.59 -11.58,-57.46c-0.05,-17.89 0.49,-35.78 0.84,-54.09c1.09,-7.82 2.12,-15.21 3.15,-22.61c2.96,-11.06 5.51,-22.26 9.02,-33.15c2.9,-8.97 6.5,-17.81 13.62,-24.54c-8.23,34.27 -10.29,68.93 -9.6,103.84c0.49,25.18 11.22,45.8 28.76,63.28z" fill="#4FBD39" id="svg_5" opacity="1"/>
  <path d="m189.1,198.18c-17.78,-17.19 -28.51,-37.81 -29,-62.99c-0.69,-34.91 1.37,-69.57 9.9,-104.01c0.98,0.27 2.68,0.84 2.81,1.66c2.84,17.98 5.64,35.97 8.18,54c3.05,21.62 3.59,43.72 11.14,64.46c3.32,9.12 8.45,17.57 12.91,26.66c-5.13,6.87 -10.42,13.4 -15.94,20.22z" fill="#225717" id="svg_6" opacity="1"/>
  <path d="m147.04,88.57c-1.01,7.87 -2.04,15.26 -3.32,23.4c-1.42,5.41 -2.38,10.15 -3.82,14.74c-5.71,18.09 -11.74,36.07 -17.32,54.2c-7.2,23.43 -12.95,47.15 -12.56,71.93c-6.68,1.24 -13.36,2.49 -20.48,3.75c-1.44,-7.22 -2.59,-14.45 -3.43,-21.71c-1.61,-13.79 2.53,-26.3 8.9,-38.26c6.56,-12.33 13.08,-24.68 19.77,-36.94c15.46,-28.3 26.82,-57.91 29.34,-90.4c0.1,-1.28 0.75,-2.51 1.36,-4.06c0.66,7.44 1.1,15.16 1.56,23.35z" fill="#083523" id="svg_7" opacity="1"/>
  <path d="m74.06,287.38c4.39,-1.7 8.96,-3.12 13.91,-4.65c6.79,1.83 13.17,3.77 19.86,5.96c-2.75,11.97 -14.43,14.08 -23.6,8.45c-3.83,-2.35 -6.69,-6.27 -10.17,-9.76z" fill="#083623" id="svg_8" opacity="1"/>
  <path d="m145.74,61.77c-0.22,-0.3 -0.41,-0.79 -0.67,-1.54c0.19,0.28 0.45,0.81 0.67,1.54z" fill="#083523" id="svg_9" opacity="1"/>
 </g>
</svg>